<svg width="29" height="25" fill="#2a69a6" xmlns="http://www.w3.org/2000/svg" xmlns:xlink="http://www.w3.org/1999/xlink" xmlns:svgjs="http://svgjs.com/svgjs" viewBox="0 0.557 29 23.886"><svg xmlns="http://www.w3.org/2000/svg" width="29" height="25" viewBox="1.335 1.897 27.034 22.267"><path paint-order="stroke fill markers" fill-rule="evenodd" d="M18.703 11.654s-.98 5.702-2.028 6.94a2.91 2.91 0 0 1-4.121.333 2.959 2.959 0 0 1-.33-4.151c1.046-1.238 6.48-3.122 6.48-3.122zm6.197 12.51H4.804a.998.998 0 0 1-.792-.393c-1.701-2.223-2.677-5.206-2.677-8.185 0-7.548 6.064-13.69 13.517-13.69 7.454 0 13.517 6.13 13.517 13.665 0 2.995-.975 5.988-2.676 8.21a.997.997 0 0 1-.793.393zM5.313 22.147h19.08c1.26-1.83 1.974-4.201 1.974-6.586 0-6.422-5.166-11.647-11.515-11.647S3.338 9.15 3.338 15.586c0 2.37.715 4.731 1.975 6.56zM6.916 15.8a1.005 1.005 0 0 1-1.002-1.008c0-5.01 4.01-9.085 8.938-9.085 4.928 0 8.939 4.063 8.939 9.057 0 .557-.448 1.008-1.002 1.008a1.004 1.004 0 0 1-1.001-1.008c0-3.882-3.111-7.04-6.936-7.04-3.824 0-6.935 3.17-6.935 7.068 0 .557-.449 1.008-1.001 1.008z" /></svg></svg>