<svg width="25" height="31" fill="#2a69a6" xmlns="http://www.w3.org/2000/svg" xmlns:xlink="http://www.w3.org/1999/xlink" xmlns:svgjs="http://svgjs.com/svgjs" viewBox="1.091 0 22.818 31"><svg xmlns="http://www.w3.org/2000/svg" width="25" height="31" viewBox="1.964 1.986 22.074 29.99"><path paint-order="stroke fill markers" fill-rule="evenodd" d="M19.266 31.975H6.736c-2.632 0-4.772-2.224-4.772-4.958V6.944c0-2.734 2.14-4.958 4.771-4.958h12.531c2.631 0 4.772 2.224 4.772 4.958v20.073c0 2.734-2.14 4.958-4.772 4.958zM6.736 3.996c-1.565 0-2.837 1.322-2.837 2.948v20.073c0 1.626 1.272 2.948 2.836 2.948h12.531c1.565 0 2.837-1.322 2.837-2.948V6.944c0-1.626-1.272-2.948-2.837-2.948H6.736zM13 28.818c-.533 0-.967-.45-.967-1.005 0-.555.434-1.005.967-1.005.533 0 .968.45.968 1.005 0 .555-.435 1.005-.968 1.005zm.968-21.387h-1.935c-.534 0-.968-.45-.968-1.005 0-.556.434-1.006.968-1.006h1.935c.534 0 .967.45.967 1.006 0 .555-.433 1.005-.967 1.005z"/></svg></svg>