<svg width="48" height="45" xmlns="http://www.w3.org/2000/svg" xmlns:xlink="http://www.w3.org/1999/xlink" xmlns:svgjs="http://svgjs.com/svgjs" viewBox="0 0.525 48 43.949" fill="#262626"><svg xmlns="http://www.w3.org/2000/svg" width="48" height="45" viewBox="1.15 1.823 46.7 42.759"><path paint-order="stroke fill markers" fill-rule="evenodd" d="M46.064 7.006a2.666 2.666 0 0 0-2.092-1.015H16.855c-.851 0-1.65.407-2.153 1.093a2.67 2.67 0 0 0-.385 2.385l4.991 15.607c.22.688.858 1.154 1.579 1.154H41.19c.766 0 1.433-.526 1.612-1.27l3.761-15.681a2.67 2.67 0 0 0-.499-2.273zm-.641 22.178H19.236a2.127 2.127 0 0 1-2.03-1.477L9.999 5.355a5.077 5.077 0 0 0-4.845-3.532H3.577a2.428 2.428 0 0 0 0 4.857h1.576c.103 0 .193.066.225.164l7.208 22.352a6.969 6.969 0 0 0 6.65 4.845h26.187a2.428 2.428 0 1 0 0-4.857zm-24.466 7.653a3.872 3.872 0 0 0-3.87 3.873 3.87 3.87 0 1 0 7.74 0 3.872 3.872 0 0 0-3.87-3.873zm20.33 0a3.872 3.872 0 0 0 0 7.745 3.872 3.872 0 1 0 0-7.745z"/></svg></svg>