<svg width="56" height="56" xmlns="http://www.w3.org/2000/svg" xmlns:xlink="http://www.w3.org/1999/xlink" xmlns:svgjs="http://svgjs.com/svgjs" viewBox="0 0.006 56 55.989" fill="#262626"><svg xmlns="http://www.w3.org/2000/svg" width="56" height="56" viewBox="1.837 1.873 54.139 54.128"><path paint-order="stroke fill markers" fill-rule="evenodd" d="M55 16.897c1.032-.192 1.332-1.53.48-2.148-1.452-1.055-3.319-2.1-4.717-1.788l2.905-7.217c.396-.977-.583-1.955-1.56-1.56l-7.225 2.898c.312-1.397-.733-3.264-1.789-4.715-.618-.846-1.956-.552-2.148.48-.552 2.97-1.932 6.31-2.634 7.889.774.498 1.5 1.086 2.172 1.752l4.873 4.871a13.135 13.135 0 0 1 1.758 2.172c1.572-.702 4.914-2.082 7.885-2.634zm-11.27 2.088l-4.872-4.871a10.65 10.65 0 0 0-7.573-3.144c-3.702 0-7.363 1.901-9.373 5.477l-5.352 9.51 5.808 9.574-8.347-5.063L2.248 51.41c-1.236 2.202.51 4.59 2.658 4.59.492 0 1.008-.126 1.518-.408l9.151-5.142-3.072-5.699 6.745 3.636 18.806-10.565-5.16-9.01 10.278 5.884c4.597-3.971 5.059-11.207.558-15.712z"/></svg></svg>