<svg width="56" height="50" xmlns="http://www.w3.org/2000/svg" xmlns:xlink="http://www.w3.org/1999/xlink" xmlns:svgjs="http://svgjs.com/svgjs" viewBox="0 0.172 56 49.656" fill="#262626"><svg xmlns="http://www.w3.org/2000/svg" width="56" height="50" viewBox="1.65 1.7 53.681 47.599"><path paint-order="stroke fill markers" fill-rule="evenodd" d="M31.285 17.733c.481-1.163.804-2.508.878-3.92.103-1.415-.092-2.888-.514-4.32-.437-1.426-1.11-2.817-2.053-4.005-.914-1.198-2.075-2.206-3.293-2.867-1.22-.661-2.48-.948-3.363-.92-.429-.015-.809.104-1.03.164l-.346.115s.029.121.074.348c.048.216.054.584.088.925.033.749-.042 1.654-.133 2.643-.166 1.947-.123 4.223.584 6.466.351 1.116.803 2.231 1.418 3.257a17.084 17.084 0 0 0 2.02 2.809c.655.726 2.133 2.407 2.67 2.834.135-.954.252-1.93.275-2.922.056-.698.01-1.391-.003-2.075-.012-.688-.136-1.35-.194-2.002-.116-.641-.274-1.254-.4-1.84l-.576-1.588-.683-1.261c-.178-.395-.47-.646-.643-.898l-.606-.76s.24.258.658.713c.193.242.51.477.718.86l.787 1.231.71 1.583c.174.585.38 1.205.548 1.858.11.66.287 1.34.351 2.042.063.703.164 1.418.16 2.136.03.815.017 1.621-.02 2.415.065-.07.139-.127.2-.203.604-.68 1.22-1.657 1.718-2.818zm-6.39 5.948c.108.176.197.343.297.516-5.383 1.028-9.75 4.907-11.477 10.009l.357.045c.444.003 1.122.11 2.281.316.024-.345.144-.68.359-.96.855-1.13 2.097-1.728 3.598-1.728 2.253.007 4.637.074 7.047.804 1.27.382 2.57.311 3.89-.219 3.8-1.52 7.137-1.38 9.833.379.333.216.68.446 1.031.683-1.917-4.889-6.303-8.535-11.624-9.405.145-.253.284-.506.445-.768.148-.24.446-.883.406-1.034-.016-.095-.013-.186-.016-.278a27.647 27.647 0 0 0-1.457 2.018c-.264-.033-.535-.043-.802-.062.138-1.015.253-2.103.307-3.245-.085.088-.159.181-.257.261-.173.115-.436 1.016-.495 1.385a37.61 37.61 0 0 1-.306 1.54c-.094 0-.18-.021-.274-.021-.774 0-1.536.064-2.28.176a26.832 26.832 0 0 0-1.25-1.726c-.005.092 0 .184-.018.278-.04.154.257.797.406 1.036zm8.77-4.161c.388-.37.828-.667 1.218-.99.419-.29.847-.538 1.237-.787l1.193-.548c.39-.112.747-.218 1.063-.31.31-.114.606-.093.836-.133l.732-.079-.725.13c-.224.059-.514.057-.81.193-.305.111-.647.24-1.019.377l-1.118.619c-.368.27-.76.541-1.144.85-.361.342-.76.657-1.109 1.044-.348.383-.722.754-1.038 1.18-.48.577-.899 1.193-1.298 1.804.519.024 2.197-.199 2.932-.287.82-.107 1.7-.298 2.553-.593.858-.278 1.675-.688 2.43-1.147 1.522-.927 2.677-2.202 3.554-3.392.44-.61.85-1.162 1.24-1.573.188-.176.376-.385.51-.484l.216-.159s-.048-.086-.139-.24c-.1-.145-.254-.402-.506-.606-.49-.456-1.35-.921-2.375-1.153-1.023-.229-2.185-.234-3.305-.006-1.13.208-2.204.663-3.163 1.259-.953.606-1.798 1.348-2.446 2.208a9.086 9.086 0 0 0-1.45 2.668c-.296.91-.432 1.772-.425 2.461-.003.073.01.145.013.215.375-.47.77-.935 1.192-1.386.35-.41.766-.767 1.15-1.135zm-22.23-3.313c.391.41.798.963 1.239 1.57.876 1.192 2.032 2.467 3.554 3.394.756.46 1.57.869 2.432 1.148.85.296 1.731.486 2.55.593.735.087 2.415.31 2.932.284a18.541 18.541 0 0 0-1.299-1.801c-.315-.426-.688-.796-1.035-1.182-.35-.385-.75-.701-1.108-1.043-.385-.309-.78-.58-1.146-.85-.395-.22-.773-.427-1.118-.619-.373-.137-.715-.263-1.017-.377-.298-.135-.587-.133-.813-.192-.46-.084-.722-.13-.722-.13l.73.077c.232.042.526.02.837.134.315.09.671.196 1.06.31l1.195.548c.391.246.817.499 1.238.787.39.322.83.62 1.217.99.385.368.799.725 1.154 1.135.422.45.817.916 1.192 1.386.002-.07.017-.142.013-.216.008-.688-.128-1.549-.425-2.46a9.004 9.004 0 0 0-1.452-2.668c-.647-.86-1.49-1.602-2.444-2.208-.96-.594-2.034-1.05-3.164-1.259-1.117-.227-2.282-.224-3.305.007-1.023.231-1.888.696-2.376 1.152-.251.205-.41.461-.507.605l-.138.24s.074.054.214.161c.135.098.324.306.512.484zM48.37 41.302c-2.324-3.152-5.363-5.501-8.566-7.587-2.6-1.69-5.56-1.331-8.318-.228-1.69.677-3.361.758-4.985.265-2.167-.654-4.345-.725-6.555-.732-.948-.003-1.735.329-2.299 1.074-.315.415 2.266 2.142 4.48 2.142-.411.82-7.567-.915-8.521-.844L8.193 34.7c-1.924-.158-1.921-.883-3.814.186a.468.468 0 0 1-.236.033c-1.053-.061-1.646.274-2.232.97-.338.403-.31.896-.13 1.367.19.49.673.362 1.069.519 2.42.958 3.201 1.427 6.484 2.238 2.335.577 4.61 1.28 6.942 1.808.964.219 1.944.381 2.813.871 1.847 1.04 3.81 1.354 5.92 1.259 2.395-.108 4.795-.013 7.196-.028 4.212-.019 7.41 1.668 9.577 5.377l13.548-.027c-2.955-3.461-4.26-4.3-6.96-7.97z"/></svg></svg>