<svg width="68" height="15" xmlns="http://www.w3.org/2000/svg" xmlns:xlink="http://www.w3.org/1999/xlink" xmlns:svgjs="http://svgjs.com/svgjs" viewBox="240 466 68 15"><svg width="68" height="15" xmlns="http://www.w3.org/2000/svg" xmlns:xlink="http://www.w3.org/1999/xlink" xmlns:svgjs="http://svgjs.com/svgjs" viewBox="240 466 68 15" x="240" y="466"><svg width="10" height="10" xmlns="http://www.w3.org/2000/svg" xmlns:xlink="http://www.w3.org/1999/xlink" xmlns:svgjs="http://svgjs.com/svgjs" viewBox="0 0.034 10 9.932" fill="#fff" x="262" y="467"><svg xmlns="http://www.w3.org/2000/svg" xmlns:xlink="http://www.w3.org/1999/xlink" width="10" height="10" viewBox="1 1 9.061 9"><path paint-order="stroke fill markers" fill-rule="evenodd" d="M5.53 1c2.503 0 4.531 2.015 4.531 4.5S8.033 10 5.531 10C3.028 10 1 7.985 1 5.5S3.028 1 5.53 1z"/></svg></svg><svg width="15" height="15" xmlns="http://www.w3.org/2000/svg" xmlns:xlink="http://www.w3.org/1999/xlink" xmlns:svgjs="http://svgjs.com/svgjs" viewBox="0 0.006 15 14.988" fill="none" opacity=".459" x="240" y="466"><svg xmlns="http://www.w3.org/2000/svg" xmlns:xlink="http://www.w3.org/1999/xlink" width="15" height="15" viewBox="2 1 12.01 12"><path paint-order="stroke fill markers" d="M8.005 1a6.002 6.002 0 0 1 6.005 6c0 3.314-2.689 6-6.005 6A6.002 6.002 0 0 1 2 7c0-3.314 2.688-6 6.005-6z"/></svg></svg><svg width="13" height="13" xmlns="http://www.w3.org/2000/svg" xmlns:xlink="http://www.w3.org/1999/xlink" xmlns:svgjs="http://svgjs.com/svgjs" viewBox="0 0.005 13 12.989" fill="#1f273f" x="240" y="466"><svg xmlns="http://www.w3.org/2000/svg" xmlns:xlink="http://www.w3.org/1999/xlink" width="13" height="13" viewBox="2 1 12.01 12"><path paint-order="stroke fill markers" fill-rule="evenodd" d="M8.005 1a6.002 6.002 0 0 1 6.005 6c0 3.314-2.689 6-6.005 6A6.002 6.002 0 0 1 2 7c0-3.314 2.688-6 6.005-6z"/></svg></svg><svg width="10" height="10" xmlns="http://www.w3.org/2000/svg" xmlns:xlink="http://www.w3.org/1999/xlink" xmlns:svgjs="http://svgjs.com/svgjs" viewBox="0 0.06 10 9.881" fill="#ed3333" x="279" y="467"><svg xmlns="http://www.w3.org/2000/svg" xmlns:xlink="http://www.w3.org/1999/xlink" width="10" height="10" viewBox="1.592 1 9.108 9"><path paint-order="stroke fill markers" fill-rule="evenodd" d="M6.146 1C8.661 1 10.7 3.015 10.7 5.5S8.661 10 6.146 10 1.592 7.985 1.592 5.5 3.63 1 6.146 1z"/></svg></svg><svg width="10" height="10" xmlns="http://www.w3.org/2000/svg" xmlns:xlink="http://www.w3.org/1999/xlink" xmlns:svgjs="http://svgjs.com/svgjs" viewBox="0 0.034 10 9.932" fill="#29e3ea" x="298" y="467"><svg xmlns="http://www.w3.org/2000/svg" width="10" height="10" viewBox="1.939 1 9.061 9"><path paint-order="stroke fill markers" fill-rule="evenodd" d="M6.47 1C8.971 1 11 3.015 11 5.5S8.972 10 6.47 10c-2.503 0-4.531-2.015-4.531-4.5S3.967 1 6.469 1z"/></svg></svg></svg></svg>