<svg width="65" height="67" xmlns="http://www.w3.org/2000/svg" xmlns:xlink="http://www.w3.org/1999/xlink" xmlns:svgjs="http://svgjs.com/svgjs" viewBox="0 0.888 65 65.224" fill="#1b1b1b"><svg xmlns="http://www.w3.org/2000/svg" width="65" height="67" viewBox="1.983 1.937 64.034 64.254"><path paint-order="stroke fill markers" fill-rule="evenodd" d="M33.999 66.191c-13.236 0-24.381-9.902-25.924-23.031a2 2 0 0 1 1.752-2.22 1.991 1.991 0 0 1 2.22 1.751c1.307 11.117 10.745 19.5 21.952 19.5 11.195 0 20.633-8.367 21.953-19.465a1.99 1.99 0 0 1 2.223-1.75 2 2 0 0 1 1.75 2.223c-1.56 13.107-12.707 22.992-25.926 22.992zm0-.508c-1.106 0-2-.894-2-2V18.558c0-1.105.894-2 2-2 1.105 0 2 .895 2 2v45.125a2 2 0 0 1-2 2zm.033-59.746A4.067 4.067 0 0 1 38.094 10a4.067 4.067 0 0 1-4.062 4.062A4.067 4.067 0 0 1 29.969 10a4.067 4.067 0 0 1 4.063-4.063c2.24 0 0 0 0 0m0-4A8.062 8.062 0 0 0 25.969 10a8.062 8.062 0 0 0 8.063 8.062A8.062 8.062 0 0 0 42.094 10a8.062 8.062 0 0 0-8.062-8.063zm24.364 39.226l-7.903 5.374c-.68.437-1.604.409-2.01-.29l-.409-.451a1.544 1.544 0 0 1 .497-2.055l9.1-6.145c.012-.01.018-.02.03-.027l.616-.396c.338-.219.731-.273 1.087-.185.36.085.683.312.887.662l.368.633c.007.012.005.026.013.038l5.142 9.456a1.544 1.544 0 0 1-.497 2.056l-.57.214c-.68.436-1.516.04-1.922-.66l-4.43-8.224zm-48.792 0l7.903 5.374c.68.437 1.603.409 2.01-.29l.409-.451c.405-.7.183-1.619-.497-2.055l-9.1-6.145c-.012-.01-.018-.02-.03-.027l-.616-.396a1.383 1.383 0 0 0-1.088-.185c-.359.085-.682.312-.886.662l-.368.633c-.007.012-.006.026-.013.038l-5.142 9.456a1.544 1.544 0 0 0 .496 2.056l.57.214c.68.436 1.517.04 1.923-.66l4.429-8.224zM24 18h20a2 2 0 1 1 0 4H24a2 2 0 0 1 0-4z"/></svg></svg>