<svg width="66" height="65" xmlns="http://www.w3.org/2000/svg" xmlns:xlink="http://www.w3.org/1999/xlink" xmlns:svgjs="http://svgjs.com/svgjs" viewBox="0.54 0 64.92 65" fill="#fff"><svg xmlns="http://www.w3.org/2000/svg" width="66" height="65" viewBox="2.179 1.972 63.976 64.055"><path paint-order="stroke fill markers" fill-rule="evenodd" d="M53.747 5.98l8.316 15.902L33.94 60.168 6.266 21.59 14.57 5.98h39.178m.42-4h-40c-1.1 0-2.422.795-2.94 1.766L2.508 20.138c-.517.971-.414 2.496.227 3.39l30.002 41.823c.322.45.75.676 1.178.676.423 0 .847-.22 1.172-.662L65.58 23.849c.65-.887.765-2.408.256-3.383L57.094 3.751c-.51-.974-1.828-1.771-2.927-1.771zm8.25 21.996h-58v-4h58v4zM32.018 61.607l-18.75-56.5 3.797-1.262 18.75 56.5-3.797 1.262zm3.94-.424l-3.778-1.32L52.278 2.316l3.777 1.32-20.097 57.547zM23.14 23.12l-3.281-2.285L32.393 2.83c.363-.522.953-.84 1.588-.858.611.01 1.242.271 1.633.774L49.08 20.084l-3.16 2.453-11.8-15.192-10.98 15.774z"/></svg></svg>