<svg width="67" height="50" xmlns="http://www.w3.org/2000/svg" xmlns:xlink="http://www.w3.org/1999/xlink" xmlns:svgjs="http://svgjs.com/svgjs" viewBox="0.07 0 66.86 50" fill="#fff"><svg xmlns="http://www.w3.org/2000/svg" width="67" height="50" viewBox="1.909 1.938 64.183 47.998"><path paint-order="stroke fill markers" fill-rule="evenodd" d="M3.91 36.692a1.998 1.998 0 0 1-1.996-2.143c.06-.865 3.113-19.832 3.623-22.888.049-.293.088-.606.13-.934.394-3.072 1.128-8.789 10.343-8.789a1.999 1.999 0 1 1 0 4c-5.696 0-5.996 2.338-6.375 5.299-.05.379-.096.742-.153 1.08-.396 2.387-3.162 16.676-3.58 22.518a2 2 0 0 1-1.992 1.857zm60.18.125c-1.04 0-2.117-.805-2.192-1.857-.418-5.842-3.183-20.258-3.58-22.643-.056-.338-.103-.701-.152-1.08-.379-2.961-.68-5.299-6.375-5.299a2 2 0 1 1 0-4c9.215 0 9.95 5.717 10.342 8.79.043.327.082.64.13.933.51 3.056 3.762 22.148 3.823 23.014a1.998 1.998 0 0 1-1.996 2.142zM16.084 26.018c5.492 0 9.959 4.467 9.959 9.96 0 5.491-4.467 9.958-9.96 9.958-5.51 0-10.167-4.56-10.167-9.959 0-5.398 4.656-9.959 10.168-9.959m0-4c-7.709 0-14.168 6.25-14.168 13.96 0 7.708 6.459 13.958 14.168 13.958s13.959-6.25 13.959-13.959-6.25-13.959-13.96-13.959zm35.998 4c5.492 0 9.959 4.467 9.959 9.96 0 5.491-4.467 9.958-9.96 9.958-5.51 0-10.167-4.56-10.167-9.959 0-5.398 4.656-9.959 10.168-9.959m0-4c-7.71 0-14.168 6.25-14.168 13.96 0 7.708 6.459 13.958 14.168 13.958s13.959-6.25 13.959-13.959-6.25-13.959-13.96-13.959zM28.87 32.956l-2.18-3.354c.276-.182 2.817-1.77 7.287-1.77 4.276 0 6.885 1.401 7.17 1.561l-1.965 3.485c-.003-.003-1.97-1.045-5.205-1.045-3.27 0-5.09 1.111-5.107 1.123z"/></svg></svg>