<svg width="65" height="53" xmlns="http://www.w3.org/2000/svg" xmlns:xlink="http://www.w3.org/1999/xlink" xmlns:svgjs="http://svgjs.com/svgjs" viewBox="0 0.082 65 52.837" fill="#fff"><svg xmlns="http://www.w3.org/2000/svg" width="65" height="53" viewBox="2 1.976 64 52.024"><path paint-order="stroke fill markers" fill-rule="evenodd" d="M62 5.976v34.011H6V5.976h56m0-4H6c-2.2 0-4 1.8-4 4v34.011c0 2.2 1.8 4 4 4h56c2.2 0 4-1.8 4-4V5.976c0-2.2-1.8-4-4-4zM36 42v8h10a2 2 0 0 1 0 4H22a2 2 0 1 1 0-4h10v-8h4z"/></svg></svg>