<svg xmlns="http://www.w3.org/2000/svg" width="64.062" height="64.25" viewBox="0 0 64.062 64.25">
  <defs>
    <style>
      .cls-1 {
        fill: #1b1b1b;
        fill-rule: evenodd;
      }
    </style>
  </defs>
  <path id="Anchor" class="cls-1" d="M288,538.191a26.1,26.1,0,0,1-25.924-23.031,2,2,0,1,1,3.973-.469,22.109,22.109,0,0,0,43.9.035,2,2,0,1,1,3.973.473A26.107,26.107,0,0,1,288,538.191Zm0-.508a2,2,0,0,1-2-2V490.558a2,2,0,0,1,4,0v45.125A2,2,0,0,1,288,537.683Zm0.033-59.746A4.063,4.063,0,1,1,283.969,482a4.067,4.067,0,0,1,4.063-4.063m0-4A8.063,8.063,0,1,0,296.094,482a8.062,8.062,0,0,0-8.062-8.063h0ZM312.4,513.163l-7.9,5.374a1.4,1.4,0,0,1-2.009-.29l-0.41-.451a1.544,1.544,0,0,1,.5-2.055l9.1-6.145c0.013-.009.019-0.02,0.031-0.027l0.616-.4a1.4,1.4,0,0,1,1.974.477l0.368,0.633c0.007,0.012,0,.026.013,0.038l5.142,9.456a1.544,1.544,0,0,1-.5,2.056l-0.57.214a1.4,1.4,0,0,1-1.922-.659Zm-48.792,0,7.9,5.374a1.4,1.4,0,0,0,2.009-.29l0.41-.451a1.544,1.544,0,0,0-.5-2.055l-9.1-6.145c-0.013-.009-0.019-0.02-0.031-0.027l-0.616-.4a1.4,1.4,0,0,0-1.974.477l-0.368.633c-0.007.012-.006,0.026-0.013,0.038l-5.142,9.456a1.544,1.544,0,0,0,.5,2.056l0.571,0.214a1.4,1.4,0,0,0,1.922-.659ZM278,490h20a2,2,0,0,1,0,4H278A2,2,0,0,1,278,490Z" transform="translate(-255.969 -473.938)"/>
</svg>
