<svg xmlns="http://www.w3.org/2000/svg" width="63.968" height="64.062" viewBox="0 0 63.968 64.062">
  <defs>
    <style>
      .cls-1 {
        fill: #fff;
        fill-rule: evenodd;
      }
    </style>
  </defs>
  <path id="Diamond" class="cls-1" d="M541.747,477.98l8.316,15.9L521.94,532.168,494.266,493.59l8.3-15.61h39.178m0.42-4h-40a3.676,3.676,0,0,0-2.94,1.766l-8.719,16.392a3.535,3.535,0,0,0,.227,3.391l30,41.822a1.366,1.366,0,0,0,2.35.014l30.494-41.516a3.519,3.519,0,0,0,.256-3.383l-8.743-16.715a3.639,3.639,0,0,0-2.927-1.771h0Zm8.25,22h-58v-4h58v4Zm-30.4,37.631-18.75-56.5,3.8-1.262,18.75,56.5Zm3.94-.424-3.778-1.32,20.1-57.547,3.777,1.32Zm-12.817-38.064-3.281-2.285,12.533-18a2,2,0,0,1,1.588-.858,2.118,2.118,0,0,1,1.633.774l13.467,17.338-3.16,2.453-11.8-15.192Z" transform="translate(-490.188 -473.969)"/>
</svg>
