<svg xmlns="http://www.w3.org/2000/svg" width="64.188" height="48" viewBox="0 0 64.188 48">
  <defs>
    <style>
      .cls-1 {
        fill: #1b1b1b;
        fill-rule: evenodd;
      }
    </style>
  </defs>
  <path id="Eyeglasses" class="cls-1" d="M726.91,516.692c-0.047,0-.1,0-0.144-0.006a2,2,0,0,1-1.852-2.137c0.061-.865,3.113-19.832,3.623-22.888,0.049-.293.088-0.606,0.131-0.934,0.393-3.072,1.127-8.789,10.342-8.789a2,2,0,0,1,0,4c-5.7,0-6,2.338-6.375,5.3-0.049.379-.1,0.742-0.153,1.08-0.4,2.387-3.162,16.676-3.58,22.518A2,2,0,0,1,726.91,516.692Zm60.18,0.125a2.2,2.2,0,0,1-2.192-1.857c-0.418-5.842-3.183-20.258-3.58-22.643-0.056-.338-0.1-0.7-0.152-1.08-0.379-2.961-.68-5.3-6.375-5.3a2,2,0,0,1,0-4c9.215,0,9.949,5.717,10.342,8.789,0.043,0.328.082,0.641,0.131,0.934,0.509,3.056,3.761,22.148,3.822,23.014a2,2,0,0,1-1.852,2.136C787.186,516.815,787.137,516.817,787.09,516.817Zm-48.006-10.8a9.959,9.959,0,1,1,0,19.918,9.961,9.961,0,1,1,0-19.918m0-4a13.961,13.961,0,1,0,0,27.918,13.959,13.959,0,1,0,0-27.918h0Zm36,4a9.959,9.959,0,1,1,0,19.918,9.961,9.961,0,1,1,0-19.918m0-4a13.961,13.961,0,1,0,0,27.918,13.959,13.959,0,1,0,0-27.918h0Zm-23.211,10.938-2.18-3.354a13.759,13.759,0,0,1,7.287-1.769,15.33,15.33,0,0,1,7.17,1.56l-1.965,3.485a11.934,11.934,0,0,0-5.205-1.045A10.382,10.382,0,0,0,751.871,512.956Z" transform="translate(-724.906 -481.938)"/>
</svg>
