<svg display="none"
xmlns="http://www.w3.org/2000/svg">
  <symbol id="Anchor" viewBox="0 0 64.062 64.25">
    <g>
      <path d="M288,538.191a26.1,26.1,0,0,1-25.924-23.031,2,2,0,1,1,3.973-.469,22.109,22.109,0,0,0,43.9.035,2,2,0,1,1,3.973.473A26.107,26.107,0,0,1,288,538.191Zm0-.508a2,2,0,0,1-2-2V490.558a2,2,0,0,1,4,0v45.125A2,2,0,0,1,288,537.683Zm0.033-59.746A4.063,4.063,0,1,1,283.969,482a4.067,4.067,0,0,1,4.063-4.063m0-4A8.063,8.063,0,1,0,296.094,482a8.062,8.062,0,0,0-8.062-8.063h0ZM312.4,513.163l-7.9,5.374a1.4,1.4,0,0,1-2.009-.29l-0.41-.451a1.544,1.544,0,0,1,.5-2.055l9.1-6.145c0.013-.009.019-0.02,0.031-0.027l0.616-.4a1.4,1.4,0,0,1,1.974.477l0.368,0.633c0.007,0.012,0,.026.013,0.038l5.142,9.456a1.544,1.544,0,0,1-.5,2.056l-0.57.214a1.4,1.4,0,0,1-1.922-.659Zm-48.792,0,7.9,5.374a1.4,1.4,0,0,0,2.009-.29l0.41-.451a1.544,1.544,0,0,0-.5-2.055l-9.1-6.145c-0.013-.009-0.019-0.02-0.031-0.027l-0.616-.4a1.4,1.4,0,0,0-1.974.477l-0.368.633c-0.007.012-.006,0.026-0.013,0.038l-5.142,9.456a1.544,1.544,0,0,0,.5,2.056l0.571,0.214a1.4,1.4,0,0,0,1.922-.659ZM278,490h20a2,2,0,0,1,0,4H278A2,2,0,0,1,278,490Z" transform="translate(-255.969 -473.938)"/>
    </g>
  </symbol>

  <symbol id="Diamond" viewBox="0 0 63.968 64.062">
    <g>
      <path d="M541.747,477.98l8.316,15.9L521.94,532.168,494.266,493.59l8.3-15.61h39.178m0.42-4h-40a3.676,3.676,0,0,0-2.94,1.766l-8.719,16.392a3.535,3.535,0,0,0,.227,3.391l30,41.822a1.366,1.366,0,0,0,2.35.014l30.494-41.516a3.519,3.519,0,0,0,.256-3.383l-8.743-16.715a3.639,3.639,0,0,0-2.927-1.771h0Zm8.25,22h-58v-4h58v4Zm-30.4,37.631-18.75-56.5,3.8-1.262,18.75,56.5Zm3.94-.424-3.778-1.32,20.1-57.547,3.777,1.32Zm-12.817-38.064-3.281-2.285,12.533-18a2,2,0,0,1,1.588-.858,2.118,2.118,0,0,1,1.633.774l13.467,17.338-3.16,2.453-11.8-15.192Z" transform="translate(-490.188 -473.969)"/>
    </g>
  </symbol>

  <symbol id="Eyeglasses" width="64.188" height="48" viewBox="0 0 64.188 48">
    <g>
      <path d="M726.91,516.692c-0.047,0-.1,0-0.144-0.006a2,2,0,0,1-1.852-2.137c0.061-.865,3.113-19.832,3.623-22.888,0.049-.293.088-0.606,0.131-0.934,0.393-3.072,1.127-8.789,10.342-8.789a2,2,0,0,1,0,4c-5.7,0-6,2.338-6.375,5.3-0.049.379-.1,0.742-0.153,1.08-0.4,2.387-3.162,16.676-3.58,22.518A2,2,0,0,1,726.91,516.692Zm60.18,0.125a2.2,2.2,0,0,1-2.192-1.857c-0.418-5.842-3.183-20.258-3.58-22.643-0.056-.338-0.1-0.7-0.152-1.08-0.379-2.961-.68-5.3-6.375-5.3a2,2,0,0,1,0-4c9.215,0,9.949,5.717,10.342,8.789,0.043,0.328.082,0.641,0.131,0.934,0.509,3.056,3.761,22.148,3.822,23.014a2,2,0,0,1-1.852,2.136C787.186,516.815,787.137,516.817,787.09,516.817Zm-48.006-10.8a9.959,9.959,0,1,1,0,19.918,9.961,9.961,0,1,1,0-19.918m0-4a13.961,13.961,0,1,0,0,27.918,13.959,13.959,0,1,0,0-27.918h0Zm36,4a9.959,9.959,0,1,1,0,19.918,9.961,9.961,0,1,1,0-19.918m0-4a13.961,13.961,0,1,0,0,27.918,13.959,13.959,0,1,0,0-27.918h0Zm-23.211,10.938-2.18-3.354a13.759,13.759,0,0,1,7.287-1.769,15.33,15.33,0,0,1,7.17,1.56l-1.965,3.485a11.934,11.934,0,0,0-5.205-1.045A10.382,10.382,0,0,0,751.871,512.956Z" transform="translate(-724.906 -481.938)"/>
    </g>
  </symbol>

  <symbol id="Monitor" width="64" height="52.031" viewBox="0 0 64 52.031">
    <g>
      <path d="M1020,483.976v34.011H964V483.976h56m0-4H964a4.013,4.013,0,0,0-4,4v34.011a4.012,4.012,0,0,0,4,4h56a4.012,4.012,0,0,0,4-4V483.976a4.012,4.012,0,0,0-4-4h0ZM994,520v8h10a2,2,0,1,1,0,4H980a2,2,0,1,1,0-4h10v-8h4Z" transform="translate(-960 -479.969)"/>
    </g>
  </symbol>
</svg>
